<?xml version="1.0" encoding="UTF-8" standalone="no"?>
<!DOCTYPE svg PUBLIC "-//W3C//DTD SVG 1.1//EN" "http://www.w3.org/Graphics/SVG/1.1/DTD/svg11.dtd">
<!-- Generated by graphviz version 2.40.1 (20161225.0304)
 -->
<!-- Title: G Pages: 1 -->
<svg width="898pt" height="1234pt" viewBox="0.00 0.00 897.78 1234.00" xmlns="http://www.w3.org/2000/svg" xmlns:xlink="http://www.w3.org/1999/xlink">
<g id="graph0" class="graph" transform="scale(1 1) rotate(0) translate(36 1198)">
<title>G</title>
<polygon fill="#f7f7f7" stroke="transparent" points="-36,36 -36,-1198 861.7812,-1198 861.7812,36 -36,36"/>
<!-- appmodelsasset -->
<g id="node1" class="node">
<title>appmodelsasset</title>
<polygon fill="none" stroke="#000000" points="519.8906,-626 341.8906,-626 341.8906,-284 519.8906,-284 519.8906,-626"/>
<polygon fill="#d3d3d3" stroke="transparent" points="341.8906,-588 341.8906,-626 519.8906,-626 519.8906,-588 341.8906,-588"/>
<polygon fill="none" stroke="#000000" points="341.8906,-588 341.8906,-626 519.8906,-626 519.8906,-588 341.8906,-588"/>
<text text-anchor="start" x="413.3857" y="-602.4" font-family="Helvetica Neue" font-size="14.00" fill="#333333">Asset</text>
<polygon fill="#ffffff" stroke="transparent" points="341.8906,-550 341.8906,-588 519.8906,-588 519.8906,-550 341.8906,-550"/>
<polygon fill="none" stroke="#000000" points="341.8906,-550 341.8906,-588 519.8906,-588 519.8906,-550 341.8906,-550"/>
<text text-anchor="start" x="352.8906" y="-564.4" font-family="Helvetica Neue" font-size="14.00" fill="#333333">id (bigint)</text>
<polygon fill="#ffffff" stroke="transparent" points="341.8906,-512 341.8906,-550 519.8906,-550 519.8906,-512 341.8906,-512"/>
<polygon fill="none" stroke="#000000" points="341.8906,-512 341.8906,-550 519.8906,-550 519.8906,-512 341.8906,-512"/>
<text text-anchor="start" x="352.8906" y="-526.4" font-family="Helvetica Neue" font-size="14.00" fill="#333333">name (string)</text>
<polygon fill="#ffffff" stroke="transparent" points="341.8906,-474 341.8906,-512 519.8906,-512 519.8906,-474 341.8906,-474"/>
<polygon fill="none" stroke="#000000" points="341.8906,-474 341.8906,-512 519.8906,-512 519.8906,-474 341.8906,-474"/>
<text text-anchor="start" x="352.8906" y="-488.4" font-family="Helvetica Neue" font-size="14.00" fill="#333333">category_id (bigint)</text>
<polygon fill="#ffffff" stroke="transparent" points="341.8906,-436 341.8906,-474 519.8906,-474 519.8906,-436 341.8906,-436"/>
<polygon fill="none" stroke="#000000" points="341.8906,-436 341.8906,-474 519.8906,-474 519.8906,-436 341.8906,-436"/>
<text text-anchor="start" x="352.709" y="-450.4" font-family="Helvetica Neue" font-size="14.00" fill="#333333">assigned_user_id (bigint)</text>
<polygon fill="#ffffff" stroke="transparent" points="341.8906,-398 341.8906,-436 519.8906,-436 519.8906,-398 341.8906,-398"/>
<polygon fill="none" stroke="#000000" points="341.8906,-398 341.8906,-436 519.8906,-436 519.8906,-398 341.8906,-398"/>
<text text-anchor="start" x="352.8906" y="-412.4" font-family="Helvetica Neue" font-size="14.00" fill="#333333">image_id (bigint)</text>
<polygon fill="#ffffff" stroke="transparent" points="341.8906,-360 341.8906,-398 519.8906,-398 519.8906,-360 341.8906,-360"/>
<polygon fill="none" stroke="#000000" points="341.8906,-360 341.8906,-398 519.8906,-398 519.8906,-360 341.8906,-360"/>
<text text-anchor="start" x="352.8906" y="-374.4" font-family="Helvetica Neue" font-size="14.00" fill="#333333">deleted_at (datetime)</text>
<polygon fill="#ffffff" stroke="transparent" points="341.8906,-322 341.8906,-360 519.8906,-360 519.8906,-322 341.8906,-322"/>
<polygon fill="none" stroke="#000000" points="341.8906,-322 341.8906,-360 519.8906,-360 519.8906,-322 341.8906,-322"/>
<text text-anchor="start" x="352.8906" y="-336.4" font-family="Helvetica Neue" font-size="14.00" fill="#333333">created_at (datetime)</text>
<polygon fill="#ffffff" stroke="transparent" points="341.8906,-284 341.8906,-322 519.8906,-322 519.8906,-284 341.8906,-284"/>
<polygon fill="none" stroke="#000000" points="341.8906,-284 341.8906,-322 519.8906,-322 519.8906,-284 341.8906,-284"/>
<text text-anchor="start" x="352.8906" y="-298.4" font-family="Helvetica Neue" font-size="14.00" fill="#333333">updated_at (datetime)</text>
</g>
<!-- appmodelsimage -->
<g id="node2" class="node">
<title>appmodelsimage</title>
<polygon fill="none" stroke="#000000" points="825.7812,-266 667.7812,-266 667.7812,0 825.7812,0 825.7812,-266"/>
<polygon fill="#d3d3d3" stroke="transparent" points="667.7812,-228 667.7812,-266 825.7812,-266 825.7812,-228 667.7812,-228"/>
<polygon fill="none" stroke="#000000" points="667.7812,-228 667.7812,-266 825.7812,-266 825.7812,-228 667.7812,-228"/>
<text text-anchor="start" x="727.3317" y="-242.4" font-family="Helvetica Neue" font-size="14.00" fill="#333333">Image</text>
<polygon fill="#ffffff" stroke="transparent" points="667.7812,-190 667.7812,-228 825.7812,-228 825.7812,-190 667.7812,-190"/>
<polygon fill="none" stroke="#000000" points="667.7812,-190 667.7812,-228 825.7812,-228 825.7812,-190 667.7812,-190"/>
<text text-anchor="start" x="678.7812" y="-204.4" font-family="Helvetica Neue" font-size="14.00" fill="#333333">id (bigint)</text>
<polygon fill="#ffffff" stroke="transparent" points="667.7812,-152 667.7812,-190 825.7812,-190 825.7812,-152 667.7812,-152"/>
<polygon fill="none" stroke="#000000" points="667.7812,-152 667.7812,-190 825.7812,-190 825.7812,-152 667.7812,-152"/>
<text text-anchor="start" x="678.7812" y="-166.4" font-family="Helvetica Neue" font-size="14.00" fill="#333333">name (string)</text>
<polygon fill="#ffffff" stroke="transparent" points="667.7812,-114 667.7812,-152 825.7812,-152 825.7812,-114 667.7812,-114"/>
<polygon fill="none" stroke="#000000" points="667.7812,-114 667.7812,-152 825.7812,-152 825.7812,-114 667.7812,-114"/>
<text text-anchor="start" x="678.7812" y="-128.4" font-family="Helvetica Neue" font-size="14.00" fill="#333333">url (string)</text>
<polygon fill="#ffffff" stroke="transparent" points="667.7812,-76 667.7812,-114 825.7812,-114 825.7812,-76 667.7812,-76"/>
<polygon fill="none" stroke="#000000" points="667.7812,-76 667.7812,-114 825.7812,-114 825.7812,-76 667.7812,-76"/>
<text text-anchor="start" x="678.7812" y="-90.4" font-family="Helvetica Neue" font-size="14.00" fill="#333333">deleted_at (datetime)</text>
<polygon fill="#ffffff" stroke="transparent" points="667.7812,-38 667.7812,-76 825.7812,-76 825.7812,-38 667.7812,-38"/>
<polygon fill="none" stroke="#000000" points="667.7812,-38 667.7812,-76 825.7812,-76 825.7812,-38 667.7812,-38"/>
<text text-anchor="start" x="678.7812" y="-52.4" font-family="Helvetica Neue" font-size="14.00" fill="#333333">created_at (datetime)</text>
<polygon fill="#ffffff" stroke="transparent" points="667.7812,0 667.7812,-38 825.7812,-38 825.7812,0 667.7812,0"/>
<polygon fill="none" stroke="#000000" points="667.7812,0 667.7812,-38 825.7812,-38 825.7812,0 667.7812,0"/>
<text text-anchor="start" x="678.3149" y="-14.4" font-family="Helvetica Neue" font-size="14.00" fill="#333333">updated_at (datetime)</text>
</g>
<!-- appmodelsasset&#45;&gt;appmodelsimage -->
<g id="edge1" class="edge">
<title>appmodelsasset:image_id-&gt;appmodelsimage:id</title>
<path fill="none" stroke="#f77f00" stroke-width="1.8" d="M525.6881,-408.8462C550.3607,-374.1454 646.2026,-239.3491 664.6864,-213.3526"/>
<polygon fill="#f77f00" stroke="#f77f00" stroke-width="1.8" points="525.6853,-408.85 516.2231,-414.3924 522.788,-412.925 519.8906,-417 519.8906,-417 519.8906,-417 522.788,-412.925 523.5581,-419.6076 525.6853,-408.85 525.6853,-408.85"/>
<polygon fill="#f77f00" stroke="#f77f00" stroke-width="1.8" points="663.1267,-206.9176 671.2767,-212.7124 670.1177,-214.3424 661.9678,-208.5476 663.1267,-206.9176"/>
<polyline fill="none" stroke="#f77f00" stroke-width="1.8" points="667.7812,-209 664.8838,-213.075 "/>
<text text-anchor="middle" x="593.8359" y="-317.2" font-family="Helvetica Neue" font-size="14.00" fill="#000000"> </text>
<text text-anchor="middle" x="561.7329" y="-298.4994" font-family="Helvetica Neue" font-size="14.00" fill="#000000">BelongsTo</text>
<text text-anchor="middle" x="561.7329" y="-281.6994" font-family="Helvetica Neue" font-size="14.00" fill="#000000">image</text>
</g>
<!-- appmodelscategory -->
<g id="node3" class="node">
<title>appmodelscategory</title>
<polygon fill="none" stroke="#000000" points="825.7812,-986 667.7812,-986 667.7812,-758 825.7812,-758 825.7812,-986"/>
<polygon fill="#d3d3d3" stroke="transparent" points="667.7812,-948 667.7812,-986 825.7812,-986 825.7812,-948 667.7812,-948"/>
<polygon fill="none" stroke="#000000" points="667.7812,-948 667.7812,-986 825.7812,-986 825.7812,-948 667.7812,-948"/>
<text text-anchor="start" x="718.3871" y="-962.4" font-family="Helvetica Neue" font-size="14.00" fill="#333333">Category</text>
<polygon fill="#ffffff" stroke="transparent" points="667.7812,-910 667.7812,-948 825.7812,-948 825.7812,-910 667.7812,-910"/>
<polygon fill="none" stroke="#000000" points="667.7812,-910 667.7812,-948 825.7812,-948 825.7812,-910 667.7812,-910"/>
<text text-anchor="start" x="678.7812" y="-924.4" font-family="Helvetica Neue" font-size="14.00" fill="#333333">id (bigint)</text>
<polygon fill="#ffffff" stroke="transparent" points="667.7812,-872 667.7812,-910 825.7812,-910 825.7812,-872 667.7812,-872"/>
<polygon fill="none" stroke="#000000" points="667.7812,-872 667.7812,-910 825.7812,-910 825.7812,-872 667.7812,-872"/>
<text text-anchor="start" x="678.7812" y="-886.4" font-family="Helvetica Neue" font-size="14.00" fill="#333333">name (string)</text>
<polygon fill="#ffffff" stroke="transparent" points="667.7812,-834 667.7812,-872 825.7812,-872 825.7812,-834 667.7812,-834"/>
<polygon fill="none" stroke="#000000" points="667.7812,-834 667.7812,-872 825.7812,-872 825.7812,-834 667.7812,-834"/>
<text text-anchor="start" x="678.7812" y="-848.4" font-family="Helvetica Neue" font-size="14.00" fill="#333333">deleted_at (datetime)</text>
<polygon fill="#ffffff" stroke="transparent" points="667.7812,-796 667.7812,-834 825.7812,-834 825.7812,-796 667.7812,-796"/>
<polygon fill="none" stroke="#000000" points="667.7812,-796 667.7812,-834 825.7812,-834 825.7812,-796 667.7812,-796"/>
<text text-anchor="start" x="678.7812" y="-810.4" font-family="Helvetica Neue" font-size="14.00" fill="#333333">created_at (datetime)</text>
<polygon fill="#ffffff" stroke="transparent" points="667.7812,-758 667.7812,-796 825.7812,-796 825.7812,-758 667.7812,-758"/>
<polygon fill="none" stroke="#000000" points="667.7812,-758 667.7812,-796 825.7812,-796 825.7812,-758 667.7812,-758"/>
<text text-anchor="start" x="678.3149" y="-772.4" font-family="Helvetica Neue" font-size="14.00" fill="#333333">updated_at (datetime)</text>
</g>
<!-- appmodelsasset&#45;&gt;appmodelscategory -->
<g id="edge2" class="edge">
<title>appmodelsasset:category_id-&gt;appmodelscategory:id</title>
<path fill="none" stroke="#f77f00" stroke-width="1.8" d="M523.117,-502.512C543.2661,-561.914 651.4337,-880.8054 666.128,-924.1263"/>
<polygon fill="#f77f00" stroke="#f77f00" stroke-width="1.8" points="523.1029,-502.47 524.1521,-491.5545 521.4967,-497.735 519.8906,-493 519.8906,-493 519.8906,-493 521.4967,-497.735 515.6291,-494.4455 523.1029,-502.47 523.1029,-502.47"/>
<polygon fill="#f77f00" stroke="#f77f00" stroke-width="1.8" points="672.195,-926.4468 662.7249,-929.6592 662.0825,-927.7652 671.5525,-924.5528 672.195,-926.4468"/>
<polyline fill="none" stroke="#f77f00" stroke-width="1.8" points="667.7812,-929 666.175,-924.265 "/>
<text text-anchor="middle" x="593.8359" y="-715.2" font-family="Helvetica Neue" font-size="14.00" fill="#000000"> </text>
<text text-anchor="middle" x="561.1681" y="-700.7191" font-family="Helvetica Neue" font-size="14.00" fill="#000000">BelongsTo</text>
<text text-anchor="middle" x="561.1681" y="-683.9191" font-family="Helvetica Neue" font-size="14.00" fill="#000000">category</text>
</g>
<!-- appmodelsassigneduser -->
<g id="node4" class="node">
<title>appmodelsassigneduser</title>
<polygon fill="none" stroke="#000000" points="825.7812,-659 667.7812,-659 667.7812,-393 825.7812,-393 825.7812,-659"/>
<polygon fill="#d3d3d3" stroke="transparent" points="667.7812,-621 667.7812,-659 825.7812,-659 825.7812,-621 667.7812,-621"/>
<polygon fill="none" stroke="#000000" points="667.7812,-621 667.7812,-659 825.7812,-659 825.7812,-621 667.7812,-621"/>
<text text-anchor="start" x="703.2195" y="-635.4" font-family="Helvetica Neue" font-size="14.00" fill="#333333">AssignedUser</text>
<polygon fill="#ffffff" stroke="transparent" points="667.7812,-583 667.7812,-621 825.7812,-621 825.7812,-583 667.7812,-583"/>
<polygon fill="none" stroke="#000000" points="667.7812,-583 667.7812,-621 825.7812,-621 825.7812,-583 667.7812,-583"/>
<text text-anchor="start" x="678.7812" y="-597.4" font-family="Helvetica Neue" font-size="14.00" fill="#333333">id (bigint)</text>
<polygon fill="#ffffff" stroke="transparent" points="667.7812,-545 667.7812,-583 825.7812,-583 825.7812,-545 667.7812,-545"/>
<polygon fill="none" stroke="#000000" points="667.7812,-545 667.7812,-583 825.7812,-583 825.7812,-545 667.7812,-545"/>
<text text-anchor="start" x="678.7812" y="-559.4" font-family="Helvetica Neue" font-size="14.00" fill="#333333">first_name (string)</text>
<polygon fill="#ffffff" stroke="transparent" points="667.7812,-507 667.7812,-545 825.7812,-545 825.7812,-507 667.7812,-507"/>
<polygon fill="none" stroke="#000000" points="667.7812,-507 667.7812,-545 825.7812,-545 825.7812,-507 667.7812,-507"/>
<text text-anchor="start" x="678.7812" y="-521.4" font-family="Helvetica Neue" font-size="14.00" fill="#333333">last_name (string)</text>
<polygon fill="#ffffff" stroke="transparent" points="667.7812,-469 667.7812,-507 825.7812,-507 825.7812,-469 667.7812,-469"/>
<polygon fill="none" stroke="#000000" points="667.7812,-469 667.7812,-507 825.7812,-507 825.7812,-469 667.7812,-469"/>
<text text-anchor="start" x="678.7812" y="-483.4" font-family="Helvetica Neue" font-size="14.00" fill="#333333">deleted_at (datetime)</text>
<polygon fill="#ffffff" stroke="transparent" points="667.7812,-431 667.7812,-469 825.7812,-469 825.7812,-431 667.7812,-431"/>
<polygon fill="none" stroke="#000000" points="667.7812,-431 667.7812,-469 825.7812,-469 825.7812,-431 667.7812,-431"/>
<text text-anchor="start" x="678.7812" y="-445.4" font-family="Helvetica Neue" font-size="14.00" fill="#333333">created_at (datetime)</text>
<polygon fill="#ffffff" stroke="transparent" points="667.7812,-393 667.7812,-431 825.7812,-431 825.7812,-393 667.7812,-393"/>
<polygon fill="none" stroke="#000000" points="667.7812,-393 667.7812,-431 825.7812,-431 825.7812,-393 667.7812,-393"/>
<text text-anchor="start" x="678.3149" y="-407.4" font-family="Helvetica Neue" font-size="14.00" fill="#333333">updated_at (datetime)</text>
</g>
<!-- appmodelsasset&#45;&gt;appmodelsassigneduser -->
<g id="edge3" class="edge">
<title>appmodelsasset:assigned_user_id-&gt;appmodelsassigneduser:id</title>
<path fill="none" stroke="#f77f00" stroke-width="1.8" d="M527.0237,-462.0901C553.3343,-488.2423 644.4298,-578.7892 664.0422,-598.2835"/>
<polygon fill="#f77f00" stroke="#f77f00" stroke-width="1.8" points="526.983,-462.0497 523.063,-451.8084 523.4368,-458.5249 519.8906,-455 519.8906,-455 519.8906,-455 523.4368,-458.5249 516.7182,-458.1916 526.983,-462.0497 526.983,-462.0497"/>
<polygon fill="#f77f00" stroke="#f77f00" stroke-width="1.8" points="670.5968,-597.7488 663.5471,-604.8412 662.1286,-603.4313 669.1783,-596.3389 670.5968,-597.7488"/>
<polyline fill="none" stroke="#f77f00" stroke-width="1.8" points="667.7812,-602 664.235,-598.4751 "/>
<text text-anchor="middle" x="593.8359" y="-532.2" font-family="Helvetica Neue" font-size="14.00" fill="#000000"> </text>
<text text-anchor="middle" x="638.3176" y="-551.1868" font-family="Helvetica Neue" font-size="14.00" fill="#000000">BelongsTo</text>
<text text-anchor="middle" x="638.3176" y="-534.3868" font-family="Helvetica Neue" font-size="14.00" fill="#000000">assignedUser</text>
</g>
<!-- appmodelsassetcomponent -->
<g id="node5" class="node">
<title>appmodelsassetcomponent</title>
<polygon fill="none" stroke="#000000" points="186,-748 8,-748 8,-368 186,-368 186,-748"/>
<polygon fill="#d3d3d3" stroke="transparent" points="8,-710 8,-748 186,-748 186,-710 8,-710"/>
<polygon fill="none" stroke="#000000" points="8,-710 8,-748 186,-748 186,-710 8,-710"/>
<text text-anchor="start" x="43.3184" y="-724.4" font-family="Helvetica Neue" font-size="14.00" fill="#333333">AssetComponent</text>
<polygon fill="#ffffff" stroke="transparent" points="8,-672 8,-710 186,-710 186,-672 8,-672"/>
<polygon fill="none" stroke="#000000" points="8,-672 8,-710 186,-710 186,-672 8,-672"/>
<text text-anchor="start" x="19" y="-686.4" font-family="Helvetica Neue" font-size="14.00" fill="#333333">id (bigint)</text>
<polygon fill="#ffffff" stroke="transparent" points="8,-634 8,-672 186,-672 186,-634 8,-634"/>
<polygon fill="none" stroke="#000000" points="8,-634 8,-672 186,-672 186,-634 8,-634"/>
<text text-anchor="start" x="19" y="-648.4" font-family="Helvetica Neue" font-size="14.00" fill="#333333">created_at (datetime)</text>
<polygon fill="#ffffff" stroke="transparent" points="8,-596 8,-634 186,-634 186,-596 8,-596"/>
<polygon fill="none" stroke="#000000" points="8,-596 8,-634 186,-634 186,-596 8,-596"/>
<text text-anchor="start" x="19" y="-610.4" font-family="Helvetica Neue" font-size="14.00" fill="#333333">updated_at (datetime)</text>
<polygon fill="#ffffff" stroke="transparent" points="8,-558 8,-596 186,-596 186,-558 8,-558"/>
<polygon fill="none" stroke="#000000" points="8,-558 8,-596 186,-596 186,-558 8,-558"/>
<text text-anchor="start" x="19" y="-572.4" font-family="Helvetica Neue" font-size="14.00" fill="#333333">name (string)</text>
<polygon fill="#ffffff" stroke="transparent" points="8,-520 8,-558 186,-558 186,-520 8,-520"/>
<polygon fill="none" stroke="#000000" points="8,-520 8,-558 186,-558 186,-520 8,-520"/>
<text text-anchor="start" x="19" y="-534.4" font-family="Helvetica Neue" font-size="14.00" fill="#333333">category_id (bigint)</text>
<polygon fill="#ffffff" stroke="transparent" points="8,-482 8,-520 186,-520 186,-482 8,-482"/>
<polygon fill="none" stroke="#000000" points="8,-482 8,-520 186,-520 186,-482 8,-482"/>
<text text-anchor="start" x="18.8184" y="-496.4" font-family="Helvetica Neue" font-size="14.00" fill="#333333">assigned_user_id (bigint)</text>
<polygon fill="#ffffff" stroke="transparent" points="8,-444 8,-482 186,-482 186,-444 8,-444"/>
<polygon fill="none" stroke="#000000" points="8,-444 8,-482 186,-482 186,-444 8,-444"/>
<text text-anchor="start" x="19" y="-458.4" font-family="Helvetica Neue" font-size="14.00" fill="#333333">image_id (bigint)</text>
<polygon fill="#ffffff" stroke="transparent" points="8,-406 8,-444 186,-444 186,-406 8,-406"/>
<polygon fill="none" stroke="#000000" points="8,-406 8,-444 186,-444 186,-406 8,-406"/>
<text text-anchor="start" x="19" y="-420.4" font-family="Helvetica Neue" font-size="14.00" fill="#333333">asset_id (bigint)</text>
<polygon fill="#ffffff" stroke="transparent" points="8,-368 8,-406 186,-406 186,-368 8,-368"/>
<polygon fill="none" stroke="#000000" points="8,-368 8,-406 186,-406 186,-368 8,-368"/>
<text text-anchor="start" x="19" y="-382.4" font-family="Helvetica Neue" font-size="14.00" fill="#333333">deleted_at (datetime)</text>
</g>
<!-- appmodelsassetcomponent&#45;&gt;appmodelsasset -->
<g id="edge7" class="edge">
<title>appmodelsassetcomponent:asset_id-&gt;appmodelsasset:id</title>
<path fill="none" stroke="#f77f00" stroke-width="1.8" d="M193.5189,-431.9454C221.3744,-457.6762 318.1196,-547.0422 338.217,-565.6066"/>
<polygon fill="#f77f00" stroke="#f77f00" stroke-width="1.8" points="193.3457,-431.7854 189.0534,-421.6944 189.6728,-428.3927 186,-425 186,-425 186,-425 189.6728,-428.3927 182.9466,-428.3056 193.3457,-431.7854 193.3457,-431.7854"/>
<polygon fill="#f77f00" stroke="#f77f00" stroke-width="1.8" points="344.5487,-564.6486 337.7633,-571.9943 336.2942,-570.6372 343.0796,-563.2915 344.5487,-564.6486"/>
<polyline fill="none" stroke="#f77f00" stroke-width="1.8" points="341.8906,-569 338.2177,-565.6073 "/>
<text text-anchor="middle" x="267.9453" y="-505.2" font-family="Helvetica Neue" font-size="14.00" fill="#000000"> </text>
<text text-anchor="middle" x="232.4136" y="-486.176" font-family="Helvetica Neue" font-size="14.00" fill="#000000">BelongsTo</text>
<text text-anchor="middle" x="232.4136" y="-469.376" font-family="Helvetica Neue" font-size="14.00" fill="#000000">asset</text>
</g>
<!-- appmodelsassetcomponent&#45;&gt;appmodelsimage -->
<g id="edge4" class="edge">
<title>appmodelsassetcomponent:image_id-&gt;appmodelsimage:id</title>
<path fill="none" stroke="#f77f00" stroke-width="1.8" d="M191.7331,-454.4752C219.8578,-412.6554 341.8906,-231.2 341.8906,-231.2 341.8906,-231.2 621.202,-212.173 662.6622,-209.3487"/>
<polygon fill="#f77f00" stroke="#f77f00" stroke-width="1.8" points="191.5806,-454.702 182.2659,-460.4887 188.7903,-458.851 186,-463 186,-463 186,-463 188.7903,-458.851 189.7341,-465.5113 191.5806,-454.702 191.5806,-454.702"/>
<polygon fill="#f77f00" stroke="#f77f00" stroke-width="1.8" points="666.4436,-204.0795 667.1234,-214.0564 665.128,-214.1924 664.4482,-204.2155 666.4436,-204.0795"/>
<polyline fill="none" stroke="#f77f00" stroke-width="1.8" points="667.7812,-209 662.7928,-209.3399 "/>
<text text-anchor="middle" x="430.8906" y="-236.2" font-family="Helvetica Neue" font-size="14.00" fill="#000000"> </text>
<text text-anchor="middle" x="334.5977" y="-216.8179" font-family="Helvetica Neue" font-size="14.00" fill="#000000">BelongsTo</text>
<text text-anchor="middle" x="334.5977" y="-200.0179" font-family="Helvetica Neue" font-size="14.00" fill="#000000">image</text>
</g>
<!-- appmodelsassetcomponent&#45;&gt;appmodelscategory -->
<g id="edge5" class="edge">
<title>appmodelsassetcomponent:category_id-&gt;appmodelscategory:id</title>
<path fill="none" stroke="#f77f00" stroke-width="1.8" d="M192.2775,-546.9253C211.1367,-570.7351 266,-640 266,-640 266,-640 341.8906,-697 341.8906,-697 341.8906,-697 625.936,-899.2106 663.6607,-926.0667"/>
<polygon fill="#f77f00" stroke="#f77f00" stroke-width="1.8" points="192.2091,-546.8389 189.5275,-536.2059 189.1045,-542.9195 186,-539 186,-539 186,-539 189.1045,-542.9195 182.4725,-541.7941 192.2091,-546.8389 192.2091,-546.8389"/>
<polygon fill="#f77f00" stroke="#f77f00" stroke-width="1.8" points="669.8663,-924.3468 664.0668,-932.4933 662.4374,-931.3334 668.237,-923.1868 669.8663,-924.3468"/>
<polyline fill="none" stroke="#f77f00" stroke-width="1.8" points="667.7812,-929 663.7079,-926.1002 "/>
<text text-anchor="middle" x="430.8906" y="-824.2" font-family="Helvetica Neue" font-size="14.00" fill="#000000"> </text>
<text text-anchor="middle" x="382.2971" y="-736.9812" font-family="Helvetica Neue" font-size="14.00" fill="#000000">BelongsTo</text>
<text text-anchor="middle" x="382.2971" y="-720.1812" font-family="Helvetica Neue" font-size="14.00" fill="#000000">category</text>
</g>
<!-- appmodelsassetcomponent&#45;&gt;appmodelsassigneduser -->
<g id="edge6" class="edge">
<title>appmodelsassetcomponent:assigned_user_id-&gt;appmodelsassigneduser:id</title>
<path fill="none" stroke="#f77f00" stroke-width="1.8" d="M193.1034,-508.3362C223.6001,-539.8325 341.8906,-662 341.8906,-662 341.8906,-662 519.8906,-662 519.8906,-662 519.8906,-662 637.1993,-614.4072 662.8606,-603.9963"/>
<polygon fill="#f77f00" stroke="#f77f00" stroke-width="1.8" points="192.9562,-508.1842 189.2329,-497.8697 189.4781,-504.5921 186,-501 186,-501 186,-501 189.4781,-504.5921 182.7671,-504.1303 192.9562,-508.1842 192.9562,-508.1842"/>
<polygon fill="#f77f00" stroke="#f77f00" stroke-width="1.8" points="664.9748,-597.7427 668.7343,-607.0092 666.881,-607.7611 663.1215,-598.4946 664.9748,-597.7427"/>
<polyline fill="none" stroke="#f77f00" stroke-width="1.8" points="667.7812,-602 663.148,-603.8798 "/>
<text text-anchor="middle" x="430.8906" y="-666.2" font-family="Helvetica Neue" font-size="14.00" fill="#000000"> </text>
<text text-anchor="middle" x="358.3035" y="-649.4" font-family="Helvetica Neue" font-size="14.00" fill="#000000">BelongsTo</text>
<text text-anchor="middle" x="358.3035" y="-632.6" font-family="Helvetica Neue" font-size="14.00" fill="#000000">assignedUser</text>
</g>
<!-- appmodelsuser -->
<g id="node6" class="node">
<title>appmodelsuser</title>
<polygon fill="none" stroke="#000000" points="194,-1162 0,-1162 0,-820 194,-820 194,-1162"/>
<polygon fill="#d3d3d3" stroke="transparent" points="0,-1124 0,-1162 194,-1162 194,-1124 0,-1124"/>
<polygon fill="none" stroke="#000000" points="0,-1124 0,-1162 194,-1162 194,-1124 0,-1124"/>
<text text-anchor="start" x="82.2251" y="-1138.4" font-family="Helvetica Neue" font-size="14.00" fill="#333333">User</text>
<polygon fill="#ffffff" stroke="transparent" points="0,-1086 0,-1124 194,-1124 194,-1086 0,-1086"/>
<polygon fill="none" stroke="#000000" points="0,-1086 0,-1124 194,-1124 194,-1086 0,-1086"/>
<text text-anchor="start" x="11" y="-1100.4" font-family="Helvetica Neue" font-size="14.00" fill="#333333">id (bigint)</text>
<polygon fill="#ffffff" stroke="transparent" points="0,-1048 0,-1086 194,-1086 194,-1048 0,-1048"/>
<polygon fill="none" stroke="#000000" points="0,-1048 0,-1086 194,-1086 194,-1048 0,-1048"/>
<text text-anchor="start" x="11" y="-1062.4" font-family="Helvetica Neue" font-size="14.00" fill="#333333">name (string)</text>
<polygon fill="#ffffff" stroke="transparent" points="0,-1010 0,-1048 194,-1048 194,-1010 0,-1010"/>
<polygon fill="none" stroke="#000000" points="0,-1010 0,-1048 194,-1048 194,-1010 0,-1010"/>
<text text-anchor="start" x="11" y="-1024.4" font-family="Helvetica Neue" font-size="14.00" fill="#333333">email (string)</text>
<polygon fill="#ffffff" stroke="transparent" points="0,-972 0,-1010 194,-1010 194,-972 0,-972"/>
<polygon fill="none" stroke="#000000" points="0,-972 0,-1010 194,-1010 194,-972 0,-972"/>
<text text-anchor="start" x="10.6599" y="-986.4" font-family="Helvetica Neue" font-size="14.00" fill="#333333">email_verified_at (datetime)</text>
<polygon fill="#ffffff" stroke="transparent" points="0,-934 0,-972 194,-972 194,-934 0,-934"/>
<polygon fill="none" stroke="#000000" points="0,-934 0,-972 194,-972 194,-934 0,-934"/>
<text text-anchor="start" x="11" y="-948.4" font-family="Helvetica Neue" font-size="14.00" fill="#333333">password (string)</text>
<polygon fill="#ffffff" stroke="transparent" points="0,-896 0,-934 194,-934 194,-896 0,-896"/>
<polygon fill="none" stroke="#000000" points="0,-896 0,-934 194,-934 194,-896 0,-896"/>
<text text-anchor="start" x="11" y="-910.4" font-family="Helvetica Neue" font-size="14.00" fill="#333333">remember_token (string)</text>
<polygon fill="#ffffff" stroke="transparent" points="0,-858 0,-896 194,-896 194,-858 0,-858"/>
<polygon fill="none" stroke="#000000" points="0,-858 0,-896 194,-896 194,-858 0,-858"/>
<text text-anchor="start" x="11" y="-872.4" font-family="Helvetica Neue" font-size="14.00" fill="#333333">created_at (datetime)</text>
<polygon fill="#ffffff" stroke="transparent" points="0,-820 0,-858 194,-858 194,-820 0,-820"/>
<polygon fill="none" stroke="#000000" points="0,-820 0,-858 194,-858 194,-820 0,-820"/>
<text text-anchor="start" x="11" y="-834.4" font-family="Helvetica Neue" font-size="14.00" fill="#333333">updated_at (datetime)</text>
</g>
</g>
</svg>